<?xml version="1.0" standalone="no"?>
<!DOCTYPE svg PUBLIC "-//W3C//DTD SVG 20010904//EN"
 "http://www.w3.org/TR/2001/REC-SVG-20010904/DTD/svg10.dtd">
<svg version="1.0" xmlns="http://www.w3.org/2000/svg"
 width="120.000000pt" height="120.000000pt" viewBox="0 0 120.000000 120.000000"
 preserveAspectRatio="xMidYMid meet">
<metadata>
Created by potrace 1.14, written by Peter Selinger 2001-2017
</metadata>
<g transform="translate(0.000000,120.000000) scale(0.100000,-0.100000)"
fill="#000000" stroke="none">
<path d="M0 809 c0 -292 3 -388 12 -383 7 5 8 3 3 -6 -11 -18 -17 -100 -7
-100 4 0 22 24 41 53 42 67 30 21 -15 -56 -27 -47 -34 -69 -34 -113 0 -38 3
-53 11 -48 6 4 26 10 44 14 48 11 35 -14 -16 -29 l-39 -12 0 -64 0 -65 297 0
c265 0 298 2 315 17 18 16 18 16 12 0 -6 -15 5 -17 110 -17 91 0 122 4 142 16
23 15 26 15 44 -1 18 -17 40 -14 40 6 0 6 11 35 25 66 56 121 78 219 79 350 1
85 -3 126 -11 134 -11 11 -13 8 -14 -12 0 -13 -9 25 -20 84 -18 102 -76 298
-100 335 -8 14 -9 12 -4 -8 3 -14 -11 9 -32 50 -21 41 -46 87 -57 103 -10 15
-15 27 -12 27 18 0 126 -62 159 -92 69 -60 119 -208 142 -418 34 -324 44 -369
78 -370 4 0 7 209 7 465 l0 465 -600 0 -600 0 0 -391z m731 310 c11 -22 18
-46 16 -52 -2 -7 -15 9 -27 35 -13 26 -27 45 -32 42 -4 -3 -5 2 -2 10 8 22 21
12 45 -35z m65 -75 c26 -68 11 -62 -19 7 -16 36 -21 56 -12 49 8 -6 22 -32 31
-56z m-582 -81 c-14 -43 -22 -87 -20 -98 3 -12 -1 -33 -9 -49 -8 -16 -15 -36
-15 -46 0 -10 -7 -26 -15 -34 -9 -9 -20 -40 -25 -71 -5 -30 -14 -63 -20 -72
-9 -15 -10 -11 -5 17 3 19 8 53 10 75 l5 40 -14 -40 c-23 -66 -18 -24 10 80
41 154 91 275 114 275 4 0 -3 -35 -16 -77z m372 28 c11 9 14 8 14 -4 0 -8 -7
-20 -15 -27 -8 -7 -15 -8 -15 -3 0 6 -16 8 -36 6 -38 -4 -39 8 -2 28 16 9 19
8 14 -3 -4 -7 -1 -5 6 5 11 15 13 16 16 2 3 -13 7 -14 18 -4z m61 -28 c-3 -10
-5 -4 -5 12 0 17 2 24 5 18 2 -7 2 -21 0 -30z m43 16 c0 -5 -4 -9 -10 -9 -5 0
-10 7 -10 16 0 8 5 12 10 9 6 -3 10 -10 10 -16z m118 -24 c-3 -3 -9 2 -12 12
-6 14 -5 15 5 6 7 -7 10 -15 7 -18z m321 -27 c-8 -14 -14 -17 -21 -10 -15 15
-2 43 16 36 12 -5 13 -10 5 -26z m-698 -91 c-10 -9 -11 -8 -5 6 3 10 9 15 12
12 3 -3 0 -11 -7 -18z m379 -97 c0 -5 -5 -10 -11 -10 -5 0 -7 5 -4 10 3 6 8
10 11 10 2 0 4 -4 4 -10z m-565 -87 c-10 -42 -18 -18 -9 29 6 32 9 37 12 19 2
-12 1 -34 -3 -48z m299 55 c-5 -9 -2 -8 9 1 28 22 29 7 3 -22 -18 -19 -35 -27
-58 -26 -18 0 -26 3 -18 6 8 4 23 17 33 30 19 24 44 33 31 11z m31 -48 c-10
-11 -23 -20 -29 -20 -6 1 0 10 13 20 30 26 39 26 16 0z m82 14 c-3 -4 1 -13 9
-21 8 -9 12 -23 9 -34 -5 -14 -1 -19 13 -19 13 0 21 -9 24 -25 4 -17 1 -25 -9
-25 -8 0 -11 5 -7 12 5 8 2 9 -9 5 -9 -3 -19 -2 -22 3 -10 16 -25 11 -19 -5 4
-8 11 -15 17 -15 6 0 19 -7 29 -17 11 -9 18 -11 18 -5 0 7 8 12 18 11 9 0 12
-3 6 -5 -15 -6 -6 -41 13 -48 8 -3 11 -1 8 4 -3 6 -1 10 4 10 6 0 11 -8 11
-18 0 -10 6 -24 13 -31 10 -11 8 -11 -10 0 -25 15 -30 13 -35 -16 -2 -13 2
-19 10 -17 8 1 11 -2 7 -8 -8 -13 18 -13 31 0 5 5 18 11 29 13 11 1 26 6 33
10 25 17 10 -10 -36 -60 -58 -63 -99 -88 -121 -70 -11 9 -15 9 -19 -1 -2 -8
-8 -10 -15 -3 -7 5 -28 11 -48 14 -47 6 -79 24 -79 45 0 15 -2 15 -11 2 -8
-12 -9 -10 -7 9 3 22 56 91 71 91 4 0 7 -11 7 -24 0 -29 11 -38 30 -25 13 7
12 9 -2 9 -10 0 -18 5 -18 11 0 6 7 8 17 5 10 -4 14 -4 11 0 -4 3 3 15 15 26
l22 20 -26 -15 c-25 -15 -28 -14 -48 4 -11 11 -21 25 -21 32 0 31 53 51 63 25
4 -10 6 -10 6 0 1 7 -11 18 -25 24 -21 10 -28 9 -38 -2 -22 -29 -41 -19 -41
21 0 20 3 35 7 33 5 -3 8 1 8 8 0 7 21 25 48 39 45 26 72 36 59 23z m-230 -10
c-3 -3 -12 -4 -19 -1 -8 3 -5 6 6 6 11 1 17 -2 13 -5z m473 -26 c0 -38 -31
-112 -51 -123 -11 -6 -12 -5 -1 6 6 7 12 29 12 50 0 42 18 99 31 99 5 0 9 -15
9 -32z m-165 -36 c-8 -8 -25 10 -19 20 4 6 9 5 15 -3 4 -7 6 -15 4 -17z m-498
-4 c-3 -8 -6 -5 -6 6 -1 11 2 17 5 13 3 -3 4 -12 1 -19z m596 -133 c-15 -19
-30 -30 -31 -25 -6 16 7 42 17 36 5 -3 14 1 21 9 26 31 20 13 -7 -20z m117
-12 c-11 -17 -11 -17 -6 0 3 10 7 26 7 35 1 15 2 15 6 0 2 -10 -1 -25 -7 -35z
m-150 27 c0 -5 -4 -10 -10 -10 -5 0 -10 5 -10 10 0 6 5 10 10 10 6 0 10 -4 10
-10z m-659 -131 c-6 -16 -10 -18 -10 -7 -1 22 12 55 16 42 2 -6 -1 -22 -6 -35z
m659 -63 c-20 -43 -40 -60 -40 -35 0 24 48 94 58 85 2 -3 -6 -25 -18 -50z
m-100 -10 c0 -2 -7 -7 -16 -10 -8 -3 -12 -2 -9 4 6 10 25 14 25 6z m91 -145
l-31 -30 0 39 c0 30 4 40 16 40 8 0 12 4 9 10 -3 5 2 22 12 37 l18 27 3 -47
c3 -41 -1 -50 -27 -76z m-686 17 c-18 -55 -35 -83 -35 -58 0 19 42 121 48 116
2 -3 -4 -29 -13 -58z m80 22 c-3 -5 -15 -10 -26 -10 -11 0 -17 5 -14 10 3 6
15 10 26 10 11 0 17 -4 14 -10z m728 -90 c4 -4 -23 -7 -60 -8 -63 -1 -66 0
-43 13 25 14 86 11 103 -5z m-284 -36 c2 -2 -12 -4 -32 -4 -20 0 -37 4 -37 10
0 8 58 3 69 -6z"/>
<path d="M616 634 c-4 -10 -2 -22 3 -27 7 -7 13 -5 17 7 4 10 2 22 -3 27 -7 7
-13 5 -17 -7z"/>
<path d="M663 514 c-6 -17 20 -44 41 -44 6 1 2 6 -9 13 -12 7 -19 20 -17 30 4
22 -7 22 -15 1z"/>
<path d="M662 387 c-50 -8 -62 -13 -59 -26 2 -9 10 -14 18 -12 8 1 24 4 36 5
11 0 19 4 16 9 -2 4 5 7 17 7 12 0 28 7 36 15 9 8 12 14 7 14 -4 -1 -36 -6
-71 -12z"/>
<path d="M543 372 c1 -14 5 -18 11 -12 7 7 6 14 -1 21 -9 9 -12 7 -10 -9z"/>
<path d="M1062 700 c0 -30 4 -82 8 -115 l7 -60 1 65 c0 36 -3 88 -8 115 l-7
50 -1 -55z"/>
<path d="M1082 480 c0 -19 2 -27 5 -17 2 9 2 25 0 35 -3 9 -5 1 -5 -18z"/>
<path d="M1087 243 c-3 -49 -14 -113 -25 -143 -37 -102 -37 -100 -3 -100 22 0
31 5 31 16 0 9 6 14 13 11 6 -2 11 -10 10 -16 -2 -6 8 -11 22 -11 29 0 29 -2
11 52 -30 93 -28 106 7 46 44 -76 47 -78 47 -31 0 27 -9 54 -29 84 -16 24 -39
73 -51 109 -12 36 -23 66 -24 68 -2 1 -6 -37 -9 -85z"/>
<path d="M1174 207 c-9 -24 6 -44 18 -22 7 11 6 21 -1 28 -7 7 -12 6 -17 -6z"/>
</g>
</svg>
